<svg xmlns="http://www.w3.org/2000/svg" width="33.059" height="34.06" viewBox="0 0 33.059 34.06">
  <g id="Group_9" data-name="Group 9" transform="translate(-16 -967.302)">
    <path id="Path_42" data-name="Path 42" d="M31.956,968.554,17.368,979.848a.957.957,0,0,0-.368.75v18.823a.978.978,0,0,0,.941.941h9.882a.978.978,0,0,0,.941-.941v-6.588a3.765,3.765,0,0,1,7.529,0v6.588a.978.978,0,0,0,.941.941h9.882a.978.978,0,0,0,.941-.941V980.6a.96.96,0,0,0-.368-.75L33.1,968.554a.953.953,0,0,0-1.147,0Zm.574,1.926,13.647,10.573v17.426h-8v-5.647a5.647,5.647,0,0,0-11.294,0v5.647h-8V981.053Z" transform="translate(0 0)" fill="#2a2a2a" stroke="#f20c0c" stroke-linecap="square" stroke-width="2"/>
  </g>
</svg>
