<svg xmlns="http://www.w3.org/2000/svg" width="35.554" height="29.63" viewBox="0 0 35.554 29.63">
  <g id="noun_Shop_2647565" transform="translate(-5.016 -13.71)">
    <g id="Group_11" data-name="Group 11" transform="translate(5.016 13.71)">
      <path id="Path_48" data-name="Path 48" d="M39.775,13.71H5.811a.792.792,0,0,0-.795.788v5.323A6.35,6.35,0,0,0,6.9,24.337V36.9A6.473,6.473,0,0,0,13.4,43.339H32.044A6.473,6.473,0,0,0,38.538,36.9V24.53c0-.019,0-.037-.006-.056a6.349,6.349,0,0,0,2.038-4.653V14.5A.792.792,0,0,0,39.775,13.71ZM27.659,19.821a4.866,4.866,0,0,1-9.732,0V15.286h9.732ZM6.606,15.286h9.731v4.535a4.866,4.866,0,0,1-9.731,0ZM20.749,41.764V35.236H24.98v6.528H20.749Zm16.2-4.862a4.888,4.888,0,0,1-4.9,4.861H26.57V34.448a.792.792,0,0,0-.795-.788H19.954a.792.792,0,0,0-.795.788v7.316H13.4a4.888,4.888,0,0,1-4.9-4.861V25.492a6.474,6.474,0,0,0,8.64-2.6,6.479,6.479,0,0,0,11.321,0,6.464,6.464,0,0,0,8.494,2.669V36.9ZM38.98,19.821a4.866,4.866,0,0,1-9.732,0V15.286H38.98Z" transform="translate(-5.016 -13.71)" fill="#2a2a2a"/>
    </g>
  </g>
</svg>
