<svg xmlns="http://www.w3.org/2000/svg" width="41.741" height="33.895" viewBox="0 0 41.741 33.895">
  <g id="noun_cart_1665954" transform="translate(-1.4 -3.408)">
    <path id="Path_52" data-name="Path 52" d="M42.541,12.109a3.194,3.194,0,0,0-2.587-1.327H12.537L10.889,6.056A3.938,3.938,0,0,0,7.165,3.408H2.581a1.181,1.181,0,1,0,0,2.363H7.165A1.575,1.575,0,0,1,8.658,6.832l1.914,5.5.018.049L15.012,25.1a6.708,6.708,0,0,0,6.334,4.507h11.9A6.7,6.7,0,0,0,39.6,25.038L42.974,15a3.2,3.2,0,0,0-.433-2.887Zm-1.8,2.127L37.364,24.278a4.344,4.344,0,0,1-4.119,2.954h-11.9a4.345,4.345,0,0,1-4.1-2.917L13.358,13.147H39.951a.827.827,0,0,1,.788,1.091ZM24.085,34.792a2.511,2.511,0,1,1-2.511-2.511,2.511,2.511,0,0,1,2.511,2.511Zm12.326,0A2.511,2.511,0,1,1,33.9,32.282a2.511,2.511,0,0,1,2.511,2.511Z" transform="translate(0 0)" fill="#2a2a2a"/>
  </g>
</svg>
