<svg xmlns="http://www.w3.org/2000/svg" width="33" height="33.999" viewBox="0 0 33 33.999">
  <path id="Union_1" data-name="Union 1" d="M-209-84v-1.619h.005c0-.152-.005-.285-.005-.4a16.535,16.535,0,0,1,4.832-11.735,16.38,16.38,0,0,1,7.516-4.333,8.5,8.5,0,0,1-1.824-1.4,8.472,8.472,0,0,1-2.475-6.011A8.484,8.484,0,0,1-192.5-118a8.369,8.369,0,0,1,5.976,2.49,8.466,8.466,0,0,1,2.475,6.01,8.469,8.469,0,0,1-2.475,6.011,8.5,8.5,0,0,1-1.824,1.4,16.381,16.381,0,0,1,7.516,4.333A16.535,16.535,0,0,1-176-86.024c0,.134,0,.27,0,.4h-1.61c0-.127.005-.262.005-.4A14.951,14.951,0,0,0-192.5-101,14.951,14.951,0,0,0-207.39-86.024c0,.133,0,.269.006.4H-176V-84Zm9.658-25.5a6.869,6.869,0,0,0,6.841,6.881,6.869,6.869,0,0,0,6.842-6.881,6.869,6.869,0,0,0-6.842-6.881A6.869,6.869,0,0,0-199.342-109.5Z" transform="translate(209 118)" fill="#2a2a2a"/>
</svg>
